# xmcd
#
# Track frame offsets:
#	150
#	15570
#	36216
#	54708
#	69802
#	80457
#	95405
#	106960
#	119053
#	131228
#
# Disc length: 1934 seconds
#
# Revision: 1
# Processed by: cddbd v1.5.1PL2 Copyright (c) Steve Scherf et al.
# Submitted via: audiograbber 1.83.01
#
DISCID=84078c0a
DTITLE=MARA ADRIANA - CHAMEGO GOSTOSO
DYEAR=1900
DGENRE=
TTITLE0=ENTRA E SAI
TTITLE1=Ô VIDINHA-OI DE CASA, OI DE FORA-ASA BRANCA
TTITLE2=XOTE DO VOVÔ E DA VOVÓ-JASMIM E ALECRIM
TTITLE3=COISA LINDA É O AMOR
TTITLE4=BAIÃO DA MARA ADRIANA
TTITLE5=CHAMEGO GOSTOSO
TTITLE6=BAILE DAS FERAS
TTITLE7=SOGRA CAMARADA
TTITLE8=FOGO DA PAIXÃO
TTITLE9=ESTA CHEGANDO A HORA
EXTD=
EXTT0=
EXTT1=
EXTT2=
EXTT3=
EXTT4=
EXTT5=
EXTT6=
EXTT7=
EXTT8=
EXTT9=
PLAYORDER=
